<?xml version="1.0" encoding="UTF-8"?>
<svg version="1.1" xmlns="http://www.w3.org/2000/svg" width="675" height="808">
<path d="M0 0 C2.82693446 1.9660573 5.15701362 3.99500921 7.53515625 6.48046875 C8.45167969 7.39892578 8.45167969 7.39892578 9.38671875 8.3359375 C15.41789989 15.30299158 17.98714894 25.19608204 17.96875 34.28515625 C16.41524044 42.15067311 12.86522568 45.36892215 6.53515625 49.85546875 C4.99255631 50.9922242 3.45088973 52.13024733 1.91015625 53.26953125 C1.15992188 53.81770508 0.4096875 54.36587891 -0.36328125 54.93066406 C-11.69626954 63.2882163 -25.12891486 73.62147382 -31.46484375 86.48046875 C-32.08359375 87.05796875 -32.70234375 87.63546875 -33.33984375 88.23046875 C-36.21127835 91.27081127 -37.74099892 94.70268115 -39.46484375 98.48046875 C-40.12484375 98.48046875 -40.78484375 98.48046875 -41.46484375 98.48046875 C-41.65820312 99.07214844 -41.8515625 99.66382813 -42.05078125 100.2734375 C-43.40899094 104.39513325 -44.7853496 108.47552115 -46.46484375 112.48046875 C-47.12484375 112.48046875 -47.78484375 112.48046875 -48.46484375 112.48046875 C-48.57699219 113.13402344 -48.68914062 113.78757812 -48.8046875 114.4609375 C-49.64822797 118.31926167 -50.82768816 122.03270374 -52.02734375 125.79296875 C-52.26130859 126.53353516 -52.49527344 127.27410156 -52.73632812 128.03710938 C-53.31016347 129.8523028 -53.88718386 131.66648881 -54.46484375 133.48046875 C-55.12484375 133.48046875 -55.78484375 133.48046875 -56.46484375 133.48046875 C-56.62919922 134.31964844 -56.62919922 134.31964844 -56.796875 135.17578125 C-58.27064655 142.6285122 -59.85991615 150.0550037 -61.46484375 157.48046875 C-62.12484375 157.48046875 -62.78484375 157.48046875 -63.46484375 157.48046875 C-61.92066305 163.65719156 -60.16816158 170.01567897 -55.33984375 174.41796875 C-47.21684216 177.4199476 -39.47907813 176.29266452 -31.078125 174.953125 C-22.46469547 173.8263953 -16.03494753 174.7343692 -9.0703125 180.0078125 C-4.1178945 184.55054142 -2.17892142 190.95575903 -1.46484375 197.48046875 C-1.79484375 197.81046875 -2.12484375 198.14046875 -2.46484375 198.48046875 C-2.96276604 201.96165445 -3.12284041 205.47224804 -3.33984375 208.98046875 C-3.42492187 209.94984375 -3.51 210.91921875 -3.59765625 211.91796875 C-4.01235981 218.93022903 -3.02005167 223.97653954 1.53515625 229.48046875 C8.16309458 234.21341514 17.26299107 233.32600467 25.01953125 232.08203125 C38.87464767 228.07133965 48.91847868 219.38152745 56.53515625 207.48046875 C65.12845106 194.6630001 74.43550342 185.84795554 89.53515625 181.48046875 C90.27765625 181.25488281 91.02015625 181.02929688 91.78515625 180.796875 C109.5190233 176.33262027 128.80978798 179.54560041 144.53515625 188.48046875 C145.73957936 189.0923934 146.94736449 189.69780242 148.16015625 190.29296875 C148.94390625 190.68484375 149.72765625 191.07671875 150.53515625 191.48046875 C150.53515625 192.14046875 150.53515625 192.80046875 150.53515625 193.48046875 C151.2003125 193.66480469 151.86546875 193.84914062 152.55078125 194.0390625 C156.85361028 196.11726134 159.87253929 199.24100526 163.28515625 202.54296875 C163.99671875 203.22327148 164.70828125 203.90357422 165.44140625 204.60449219 C166.84905633 205.95370424 168.25345609 207.30631707 169.65429688 208.66259766 C171.19191925 210.14872645 172.74429033 211.61958236 174.30078125 213.0859375 C182.67017791 221.11880248 191.36779173 230.63291271 191.96875 242.6953125 C191.98586331 244.60278826 191.98682404 246.51046884 191.97265625 248.41796875 C191.99263672 249.36865234 192.01261719 250.31933594 192.03320312 251.29882812 C192.02805795 258.7644784 190.5910123 264.4246127 185.22265625 269.79296875 C176.36122378 275.35712402 166.60366922 276.89970974 156.41015625 274.73046875 C154.78400369 274.31832319 153.15914668 273.9010531 151.53515625 273.48046875 C150.4678125 273.24714844 149.40046875 273.01382812 148.30078125 272.7734375 C134.30732546 269.48527568 121.59072466 263.2315479 109.53515625 255.48046875 C95.7605554 247.02456747 80.48717747 240.50885786 64.1640625 244.25390625 C60.90185979 245.21450776 57.72829673 246.31234521 54.53515625 247.48046875 C53.59929688 247.78082031 52.6634375 248.08117187 51.69921875 248.390625 C42.6189641 251.39569495 34.31153694 255.68919491 27.53515625 262.48046875 C26.87515625 262.48046875 26.21515625 262.48046875 25.53515625 262.48046875 C24.1391654 272.42059639 24.54941606 279.3761124 30.22265625 287.79296875 C38.41087616 297.95765553 53.4641435 299.09973105 65.54702759 300.87200928 C81.93436597 303.29373061 97.66828745 306.65432306 113.53515625 311.48046875 C113.53515625 312.14046875 113.53515625 312.80046875 113.53515625 313.48046875 C114.63730469 313.64482422 114.63730469 313.64482422 115.76171875 313.8125 C122.52870946 315.44229635 129.91065775 321.30486421 134.53515625 326.48046875 C138.94947579 333.820438 138.56149485 341.67433478 136.80859375 349.8828125 C135.07093901 355.59729496 133.36130527 359.7137183 128.53515625 363.48046875 C127.68953125 364.20234375 126.84390625 364.92421875 125.97265625 365.66796875 C120.08697858 370.0444983 114.76781751 370.49670343 107.53515625 369.48046875 C104.0724098 367.99724022 101.41219589 365.88869404 98.53515625 363.48046875 C97.64957031 362.76890625 96.76398437 362.05734375 95.8515625 361.32421875 C93.96721674 359.79792482 92.09221469 358.26002562 90.2265625 356.7109375 C86.39911828 353.53899171 82.5033559 350.47402287 78.53515625 347.48046875 C77.77976562 346.90554688 77.024375 346.330625 76.24609375 345.73828125 C64.48025805 337.11511176 52.45327996 330.94143606 37.53515625 332.48046875 C27.44086723 335.15079378 19.96350424 339.10739192 14.53515625 348.10546875 C12.81379324 351.15474126 12.81379324 351.15474126 12.79296875 354.5546875 C16.17459483 363.32911729 24.33607843 368.44255318 31.4765625 373.98828125 C35.59089596 377.26737409 38.22815102 380.15686055 38.93359375 385.49609375 C38.88295401 392.48437734 38.17352369 397.99448212 35.53515625 404.48046875 C34.87515625 404.48046875 34.21515625 404.48046875 33.53515625 404.48046875 C33.20515625 405.47046875 32.87515625 406.46046875 32.53515625 407.48046875 C26.99274185 411.17541168 19.94119684 410.4109821 13.53515625 409.48046875 C0.57651093 406.44839953 -11.82395961 401.34731243 -23.515625 395.046875 C-28.54573953 392.37525126 -32.85493192 391.79153221 -38.46484375 392.48046875 C-41.57331948 393.84989324 -41.57331948 393.84989324 -43.46484375 396.48046875 C-44.75684529 400.76022385 -44.63265459 402.97703624 -43.21484375 407.23046875 C-41.7147347 410.01638557 -40.71216928 411.41292926 -38.46484375 413.48046875 C-37.82546875 414.49109375 -37.18609375 415.50171875 -36.52734375 416.54296875 C-34.45288692 419.49749818 -33.61493596 420.10230341 -30.46484375 421.48046875 C-29.89378906 422.07472656 -29.32273437 422.66898437 -28.734375 423.28125 C-26.10774199 425.82650712 -23.27586064 427.68304484 -20.15234375 429.54296875 C-19.20174072 430.11180786 -19.20174072 430.11180786 -18.23193359 430.69213867 C-6.44237673 437.56591347 6.14291959 443.12350032 18.61816406 448.62475586 C20.92607142 449.65496667 23.19608385 450.75804411 25.47265625 451.85546875 C31.10350826 454.4300238 36.88934367 456.33542088 42.76806641 458.24731445 C49.4541895 460.42635541 55.99259692 462.90309689 62.53515625 465.48046875 C63.65921875 465.90328125 64.78328125 466.32609375 65.94140625 466.76171875 C71.98316739 469.0343078 77.8889297 471.33788076 83.53515625 474.48046875 C84.52515625 475.01671875 85.51515625 475.55296875 86.53515625 476.10546875 C91.53505137 480.06371906 96.49451415 485.35854246 98.53515625 491.48046875 C98.68396558 494.2649203 98.76622625 497.0078926 98.78515625 499.79296875 C98.81609375 500.91348633 98.81609375 500.91348633 98.84765625 502.05664062 C98.88764308 507.74976568 97.88522338 512.04647065 93.78515625 516.29296875 C86.80822237 519.97523941 78.87408086 518.09277784 71.63037109 516.15234375 C63.30060175 513.48122685 55.18683519 509.14264173 48.53515625 503.48046875 C47.69597656 502.7946875 46.85679687 502.10890625 45.9921875 501.40234375 C45.11949219 500.685625 44.24679687 499.96890625 43.34765625 499.23046875 C39.76062323 496.29169471 36.16066695 493.37162561 32.53515625 490.48046875 C26.18416224 485.41371997 19.90062614 480.26458891 13.640625 475.0859375 C5.26836421 467.65067036 5.26836421 467.65067036 -4.46484375 462.48046875 C-4.46484375 461.82046875 -4.46484375 461.16046875 -4.46484375 460.48046875 C-5.49158203 460.11308594 -5.49158203 460.11308594 -6.5390625 459.73828125 C-9.99488119 458.25260219 -13.09536705 456.34011235 -16.27734375 454.35546875 C-21.76408986 450.99605443 -27.32874662 447.90712966 -33.08984375 445.04296875 C-34.08334839 444.54869385 -34.08334839 444.54869385 -35.09692383 444.04443359 C-38.50198159 442.37481751 -41.92104197 440.83145832 -45.46484375 439.48046875 C-45.46484375 438.82046875 -45.46484375 438.16046875 -45.46484375 437.48046875 C-46.25117188 437.38894531 -47.0375 437.29742187 -47.84765625 437.203125 C-53.43265843 436.08733083 -58.63614169 433.95364473 -63.9453125 431.91992188 C-69.3563751 429.93696039 -73.69285291 428.78883586 -79.46484375 429.48046875 C-82.4471664 431.52246952 -84.00915058 434.19707192 -85.46484375 437.48046875 C-85.91087693 440.55999572 -85.85009627 443.3984486 -85.46484375 446.48046875 C-84.80484375 446.48046875 -84.14484375 446.48046875 -83.46484375 446.48046875 C-83.16191406 447.14433594 -82.85898437 447.80820312 -82.546875 448.4921875 C-76.93422692 460.32192268 -69.48792791 464.50170231 -57.45654297 468.80566406 C-52.33476463 470.54096626 -47.12354733 471.99123774 -41.921875 473.46484375 C-38.46484375 474.48046875 -38.46484375 474.48046875 -36.46484375 475.48046875 C-36.46484375 476.14046875 -36.46484375 476.80046875 -36.46484375 477.48046875 C-35.78035156 477.68671875 -35.09585937 477.89296875 -34.390625 478.10546875 C-30.48792988 479.93957914 -27.76497156 482.53787301 -24.65234375 485.48046875 C-24.05486328 486.02703125 -23.45738281 486.57359375 -22.84179688 487.13671875 C-21.33853842 488.53861464 -19.8961345 490.00517052 -18.46484375 491.48046875 C-18.46484375 492.14046875 -18.46484375 492.80046875 -18.46484375 493.48046875 C-17.47484375 493.81046875 -16.48484375 494.14046875 -15.46484375 494.48046875 C-11.87708102 499.53704709 -12.94412939 506.62078442 -13.46484375 512.48046875 C-14.31390599 515.57674962 -15.61868349 517.87056957 -17.46484375 520.48046875 C-17.93921875 521.20621094 -18.41359375 521.93195312 -18.90234375 522.6796875 C-23.66517375 529.42321363 -30.05945532 534.77777453 -37.46484375 538.48046875 C-45.76429884 539.1314064 -51.22838101 536.09812815 -57.546875 531.1484375 C-62.69946147 526.66747126 -66.37489328 521.54152544 -69.46484375 515.48046875 C-69.46484375 514.82046875 -69.46484375 514.16046875 -69.46484375 513.48046875 C-70.12484375 513.48046875 -70.78484375 513.48046875 -71.46484375 513.48046875 C-71.99271484 512.38992188 -71.99271484 512.38992188 -72.53125 511.27734375 C-83.96626653 487.27074377 -83.96626653 487.27074377 -104.46484375 471.48046875 C-108.05575201 470.60684174 -111.39863789 470.34530014 -115.08984375 470.35546875 C-116.03085937 470.35289062 -116.971875 470.3503125 -117.94140625 470.34765625 C-120.59161882 470.37498877 -120.59161882 470.37498877 -123.46484375 471.48046875 C-123.46484375 474.78046875 -123.46484375 478.08046875 -123.46484375 481.48046875 C-122.80484375 481.48046875 -122.14484375 481.48046875 -121.46484375 481.48046875 C-121.17351562 482.49625 -120.8821875 483.51203125 -120.58203125 484.55859375 C-118.25973471 492.43174544 -115.6217205 499.62541565 -111.7578125 506.90625 C-110.17250115 510.06250433 -109.24522932 513.04677226 -108.46484375 516.48046875 C-107.80484375 516.48046875 -107.14484375 516.48046875 -106.46484375 516.48046875 C-105.46000171 518.436322 -104.4611057 520.39523112 -103.46484375 522.35546875 C-102.90796875 523.44601562 -102.35109375 524.5365625 -101.77734375 525.66015625 C-100.46484375 528.48046875 -100.46484375 528.48046875 -100.46484375 530.48046875 C-99.80484375 530.48046875 -99.14484375 530.48046875 -98.46484375 530.48046875 C-98.08972656 531.18171875 -97.71460938 531.88296875 -97.328125 532.60546875 C-94.9030791 537.10127172 -92.47471603 541.55501104 -89.71484375 545.85546875 C-87.93437024 548.63781642 -86.54434286 551.34010772 -85.46484375 554.48046875 C-84.80484375 554.48046875 -84.14484375 554.48046875 -83.46484375 554.48046875 C-82.17578125 556.16015625 -82.17578125 556.16015625 -80.83984375 558.35546875 C-80.39382813 559.07476563 -79.9478125 559.7940625 -79.48828125 560.53515625 C-78.46484375 562.48046875 -78.46484375 562.48046875 -78.46484375 564.48046875 C-77.80484375 564.48046875 -77.14484375 564.48046875 -76.46484375 564.48046875 C-74.94921875 566.3515625 -74.94921875 566.3515625 -73.21484375 568.91796875 C-72.59480469 569.82675781 -71.97476562 570.73554687 -71.3359375 571.671875 C-70.15420375 573.44570917 -68.97884794 575.22382405 -67.8125 577.0078125 C-65.26506703 580.90350515 -62.82568692 584.23551672 -59.46484375 587.48046875 C-58.4529648 589.13995023 -57.45218915 590.80627437 -56.46484375 592.48046875 C-55.99046875 592.94453125 -55.51609375 593.40859375 -55.02734375 593.88671875 C-53.33698223 595.6108875 -52.24527066 597.33751 -51.02734375 599.41796875 C-49.1238541 602.5504382 -47.10620186 604.92715591 -44.46484375 607.48046875 C-43.4529648 609.13995023 -42.45218915 610.80627437 -41.46484375 612.48046875 C-40.995625 612.94195313 -40.52640625 613.4034375 -40.04296875 613.87890625 C-38.30752833 615.64012054 -37.08272252 617.4457386 -35.77734375 619.54296875 C-35.34035156 620.23519531 -34.90335937 620.92742188 -34.453125 621.640625 C-33.46484375 623.48046875 -33.46484375 623.48046875 -33.46484375 625.48046875 C-32.80484375 625.48046875 -32.14484375 625.48046875 -31.46484375 625.48046875 C-21.93276093 641.90668589 -19.47791333 655.62257889 -23.46484375 674.48046875 C-23.79484375 675.47046875 -24.12484375 676.46046875 -24.46484375 677.48046875 C-25.12484375 677.48046875 -25.78484375 677.48046875 -26.46484375 677.48046875 C-26.73296875 678.36734375 -27.00109375 679.25421875 -27.27734375 680.16796875 C-28.86498341 684.5966478 -30.45600894 687.49818223 -33.83984375 690.79296875 C-39.20885092 693.29233415 -44.63135932 693.31705373 -50.46484375 692.48046875 C-52.7109375 691.04296875 -52.7109375 691.04296875 -54.46484375 689.48046875 C-55.67140625 688.76890625 -55.67140625 688.76890625 -56.90234375 688.04296875 C-62.31833436 684.74053545 -66.28400286 680.97587897 -69.46484375 675.48046875 C-69.46484375 674.82046875 -69.46484375 674.16046875 -69.46484375 673.48046875 C-70.12484375 673.48046875 -70.78484375 673.48046875 -71.46484375 673.48046875 C-72.30646229 671.40046864 -73.13785138 669.31632729 -73.96484375 667.23046875 C-74.42890625 666.0703125 -74.89296875 664.91015625 -75.37109375 663.71484375 C-76.46484375 660.48046875 -76.46484375 660.48046875 -76.46484375 656.48046875 C-77.12484375 656.48046875 -77.78484375 656.48046875 -78.46484375 656.48046875 C-78.6664209 655.66368652 -78.86799805 654.8469043 -79.07568359 654.00537109 C-79.83042587 650.95215463 -80.587344 647.89948792 -81.34570312 644.84716797 C-81.67241205 643.53032438 -81.99827302 642.2132701 -82.32324219 640.89599609 C-82.79264592 638.99390304 -83.26543401 637.0926462 -83.73828125 635.19140625 C-84.02106934 634.04978027 -84.30385742 632.9081543 -84.59521484 631.73193359 C-85.43361328 628.59723669 -86.4235498 625.55265704 -87.46484375 622.48046875 C-88.23215651 619.76587129 -88.90865404 617.03034223 -89.58984375 614.29296875 C-89.77160156 613.58205078 -89.95335937 612.87113281 -90.140625 612.13867188 C-90.88203324 609.17582616 -91.46484375 606.54715744 -91.46484375 603.48046875 C-92.12484375 603.48046875 -92.78484375 603.48046875 -93.46484375 603.48046875 C-93.63089111 602.88097412 -93.79693848 602.28147949 -93.96801758 601.66381836 C-94.73278621 598.91378144 -95.50500478 596.16588872 -96.27734375 593.41796875 C-96.66889648 592.00354492 -96.66889648 592.00354492 -97.06835938 590.56054688 C-98.54583748 585.32553185 -100.22514998 580.43457399 -102.46484375 575.48046875 C-103.2116712 573.54970749 -103.94247702 571.61262283 -104.65234375 569.66796875 C-104.99652344 568.73339844 -105.34070313 567.79882812 -105.6953125 566.8359375 C-106.46484375 564.48046875 -106.46484375 564.48046875 -106.46484375 562.48046875 C-107.12484375 562.48046875 -107.78484375 562.48046875 -108.46484375 562.48046875 C-108.99271484 561.09988281 -108.99271484 561.09988281 -109.53125 559.69140625 C-112.66441852 551.62011503 -116.13729672 543.88713352 -120.14453125 536.2109375 C-121.46484375 533.48046875 -121.46484375 533.48046875 -121.46484375 531.48046875 C-122.12484375 531.48046875 -122.78484375 531.48046875 -123.46484375 531.48046875 C-124.30275164 529.6909369 -125.13503771 527.8987718 -125.96484375 526.10546875 C-126.42890625 525.10773437 -126.89296875 524.11 -127.37109375 523.08203125 C-128.46484375 520.48046875 -128.46484375 520.48046875 -128.46484375 518.48046875 C-129.12484375 518.48046875 -129.78484375 518.48046875 -130.46484375 518.48046875 C-131.46968579 516.5246155 -132.4685818 514.56570638 -133.46484375 512.60546875 C-134.02171875 511.51492188 -134.57859375 510.424375 -135.15234375 509.30078125 C-136.46484375 506.48046875 -136.46484375 506.48046875 -136.46484375 504.48046875 C-137.12484375 504.48046875 -137.78484375 504.48046875 -138.46484375 504.48046875 C-139.30303533 502.85796934 -140.13525535 501.23238378 -140.96484375 499.60546875 C-141.42890625 498.70054687 -141.89296875 497.795625 -142.37109375 496.86328125 C-143.46484375 494.48046875 -143.46484375 494.48046875 -143.46484375 492.48046875 C-144.12484375 492.48046875 -144.78484375 492.48046875 -145.46484375 492.48046875 C-145.75617188 491.69800781 -146.0475 490.91554688 -146.34765625 490.109375 C-148.54773765 483.8840784 -148.54773765 483.8840784 -153.52734375 480.16796875 C-156.45430012 480.47934709 -158.14396944 480.67534429 -160.46484375 482.48046875 C-161.3345771 484.27762066 -161.3345771 484.27762066 -161.46484375 486.48046875 C-160.48045739 488.90526939 -160.48045739 488.90526939 -159.02734375 491.41796875 C-155.67960348 498.34593125 -154.95499218 505.7884188 -157.3359375 513.1875 C-158.8547237 516.27237024 -160.89266039 518.22980831 -163.46484375 520.48046875 C-164.12484375 520.48046875 -164.78484375 520.48046875 -165.46484375 520.48046875 C-165.46484375 521.14046875 -165.46484375 521.80046875 -165.46484375 522.48046875 C-172.09849216 525.32346092 -177.15322771 526.60523815 -184.33984375 524.73046875 C-186.88623409 523.23259208 -187.29167792 522.13964463 -188.46484375 519.48046875 C-189.33109375 518.64515625 -189.33109375 518.64515625 -190.21484375 517.79296875 C-192.31924339 515.63011356 -193.81637472 513.5573003 -195.46484375 511.04296875 C-195.98304688 510.25664063 -196.50125 509.4703125 -197.03515625 508.66015625 C-197.74285156 507.58121094 -197.74285156 507.58121094 -198.46484375 506.48046875 C-201.9804756 501.20702097 -206.45342523 498.69101517 -212.4453125 496.8828125 C-218.46576234 495.68338052 -224.8218471 496.06204162 -230.46484375 498.48046875 C-231.86742251 500.86166121 -231.86742251 500.86166121 -232.46484375 503.48046875 C-233.12484375 504.47046875 -233.78484375 505.46046875 -234.46484375 506.48046875 C-234.85872163 508.80434822 -235.1997046 511.13840624 -235.46484375 513.48046875 C-234.80484375 513.48046875 -234.14484375 513.48046875 -233.46484375 513.48046875 C-232.81499658 517.77153744 -232.17070534 522.06342327 -231.52734375 526.35546875 C-231.25374023 528.16144531 -231.25374023 528.16144531 -230.97460938 530.00390625 C-229.2138282 541.78513299 -228.28344843 553.1205202 -228.27734375 565.04296875 C-228.26509766 566.30560547 -228.25285156 567.56824219 -228.24023438 568.86914062 C-228.21196509 586.91437042 -228.21196509 586.91437042 -233.46484375 593.48046875 C-239.01434373 598.23718302 -244.1662036 598.76826944 -251.20703125 598.296875 C-258.84586822 597.27060466 -264.11457463 594.42900021 -269.10546875 588.546875 C-271.23285166 585.31300844 -271.71997718 582.2668738 -272.46484375 578.48046875 C-272.13484375 578.15046875 -271.80484375 577.82046875 -271.46484375 577.48046875 C-271.32778477 575.48245335 -271.2319341 573.48159745 -271.15234375 571.48046875 C-270.3620221 559.54053248 -267.6000828 548.26616281 -262.6953125 537.33984375 C-260.96041388 533.30826982 -259.66595855 529.16318979 -258.359375 524.9765625 C-257.46484375 522.48046875 -257.46484375 522.48046875 -255.46484375 519.48046875 C-252.68131838 509.80685899 -252.39970405 500.80722543 -256.46484375 491.48046875 C-260.10100223 485.33362941 -264.40579292 480.44628037 -271.46484375 478.48046875 C-274.18917736 478.45744618 -274.18917736 478.45744618 -276.46484375 479.48046875 C-277.54765625 479.82078125 -277.54765625 479.82078125 -278.65234375 480.16796875 C-281.35966791 482.12844486 -281.59808174 484.29858917 -282.46484375 487.48046875 C-283.19565844 495.87409046 -282.31062523 504.21581017 -281.17675781 512.53051758 C-280.5877273 516.90894281 -280.37298308 521.07689809 -280.46484375 525.48046875 C-279.80484375 525.48046875 -279.14484375 525.48046875 -278.46484375 525.48046875 C-276.99694375 536.38486878 -276.68777872 547.60652324 -278.46484375 558.48046875 C-279.12484375 558.48046875 -279.78484375 558.48046875 -280.46484375 558.48046875 C-280.54734375 559.30546875 -280.62984375 560.13046875 -280.71484375 560.98046875 C-282.18189708 567.82671764 -285.15402083 572.87775555 -290.46484375 577.48046875 C-291.10292969 578.04765625 -291.74101562 578.61484375 -292.3984375 579.19921875 C-299.02448992 584.77407925 -306.41534773 589.0977926 -315.33984375 588.41796875 C-317.05413055 588.1399763 -318.76256277 587.82441425 -320.46484375 587.48046875 C-321.52058594 587.30257812 -322.57632813 587.1246875 -323.6640625 586.94140625 C-331.14631852 585.49883424 -336.55300737 583.26838187 -342.46484375 578.48046875 C-343.16351563 577.93132813 -343.8621875 577.3821875 -344.58203125 576.81640625 C-352.28428073 570.45115102 -357.93280662 563.56637984 -359.46484375 553.48046875 C-360.56444066 540.21330842 -358.80094264 528.07400812 -354.46484375 515.48046875 C-353.80484375 515.48046875 -353.14484375 515.48046875 -352.46484375 515.48046875 C-352.21605469 514.77019531 -351.96726562 514.05992187 -351.7109375 513.328125 C-350.32439627 510.15950884 -348.59545938 507.68700998 -346.52734375 504.91796875 C-345.83769531 503.98855469 -345.14804687 503.05914063 -344.4375 502.1015625 C-343.78652344 501.23660156 -343.13554687 500.37164063 -342.46484375 499.48046875 C-341.65853516 498.32224609 -341.65853516 498.32224609 -340.8359375 497.140625 C-340.38347656 496.59277344 -339.93101562 496.04492188 -339.46484375 495.48046875 C-338.80484375 495.48046875 -338.14484375 495.48046875 -337.46484375 495.48046875 C-337.06265625 494.64515625 -337.06265625 494.64515625 -336.65234375 493.79296875 C-334.12067093 488.86286905 -331.43732979 485.36467732 -327.46484375 481.48046875 C-326.05614938 479.97154036 -324.66118573 478.44972137 -323.27734375 476.91796875 C-322.60316406 476.17417969 -321.92898438 475.43039062 -321.234375 474.6640625 C-319.43343643 472.60948797 -319.43343643 472.60948797 -318.4765625 470.453125 C-317.20105837 467.96613818 -315.4587394 466.42972495 -313.46484375 464.48046875 C-309.07381417 458.81835165 -305.47209211 452.97612522 -302.46484375 446.48046875 C-301.80484375 446.48046875 -301.14484375 446.48046875 -300.46484375 446.48046875 C-300.09359375 445.24296875 -300.09359375 445.24296875 -299.71484375 443.98046875 C-298.2744994 439.94750456 -296.43031151 436.27724265 -294.46484375 432.48046875 C-290.43721841 424.70475864 -290.43721841 424.70475864 -287.46484375 416.48046875 C-286.80484375 416.48046875 -286.14484375 416.48046875 -285.46484375 416.48046875 C-285.10278911 414.52357838 -284.75042954 412.56489207 -284.40234375 410.60546875 C-284.20511719 409.51492188 -284.00789062 408.424375 -283.8046875 407.30078125 C-283.20852476 404.53393592 -283.20852476 404.53393592 -284.46484375 402.48046875 C-288.34591086 400.17608515 -291.81859122 400.19421428 -296.15625 400.828125 C-300.36183953 402.01650647 -303.17320936 404.7064931 -306.46484375 407.48046875 C-308.00808669 408.64642993 -309.55163377 409.8120109 -311.1003418 410.97070312 C-317.057317 415.44558914 -322.55837248 420.17949255 -327.9296875 425.3515625 C-332.24637109 428.97651251 -336.80298029 431.26270477 -342.46484375 431.48046875 C-348.16943854 430.36894545 -353.44662913 428.86397561 -357.46484375 424.48046875 C-360.48473479 419.16962588 -361.34598295 414.45478622 -360.46484375 408.48046875 C-358.90906616 402.98338792 -357.51165474 398.56021561 -352.46484375 395.48046875 C-351.80484375 395.48046875 -351.14484375 395.48046875 -350.46484375 395.48046875 C-350.46484375 394.82046875 -350.46484375 394.16046875 -350.46484375 393.48046875 C-348.83954719 392.97256357 -347.21423658 392.4647033 -345.58886719 391.95703125 C-344.15439118 391.50855139 -342.72015189 391.05931375 -341.28613281 390.609375 C-337.61639367 389.45908672 -333.94433408 388.31937342 -330.26171875 387.2109375 C-322.1274921 384.74941757 -314.18016124 382.07941714 -306.46484375 378.48046875 C-305.30662109 377.98353516 -305.30662109 377.98353516 -304.125 377.4765625 C-297.45500213 374.11051144 -295.72583646 368.29605735 -293.46484375 361.48046875 C-294.12484375 361.48046875 -294.78484375 361.48046875 -295.46484375 361.48046875 C-295.90054688 360.70832031 -296.33625 359.93617188 -296.78515625 359.140625 C-301.417313 351.8045814 -314.48286837 349.50574608 -322.46484375 347.48046875 C-328.56879944 346.33457277 -334.58910724 346.29698448 -340.77734375 346.29296875 C-341.75896484 346.28072266 -342.74058594 346.26847656 -343.75195312 346.25585938 C-352.07861458 346.23932729 -359.76961463 347.18251341 -367.46484375 350.48046875 C-372.7084616 351.71532893 -377.79157514 351.66437815 -383.15234375 351.66796875 C-384.09529297 351.68021484 -385.03824219 351.69246094 -386.00976562 351.70507812 C-402.039919 351.73812999 -421.91745456 345.75507539 -433.65234375 334.35546875 C-434.26529297 333.71158203 -434.26529297 333.71158203 -434.890625 333.0546875 C-436.95437935 330.99093315 -439.14782121 329.09469355 -441.33984375 327.16796875 C-448.00298978 321.17906964 -454.3856716 315.10597583 -457.46484375 306.48046875 C-457.46484375 305.49046875 -457.46484375 304.50046875 -457.46484375 303.48046875 C-458.12484375 303.48046875 -458.78484375 303.48046875 -459.46484375 303.48046875 C-459.66962973 299.31453676 -459.79297402 295.14991082 -459.90234375 290.98046875 C-459.96099609 289.80742187 -460.01964844 288.634375 -460.08007812 287.42578125 C-460.19631786 281.51416044 -460.13644998 277.42325143 -456.2421875 272.765625 C-451.78912861 268.25532729 -446.43921591 266.56863742 -440.17578125 266.4296875 C-437.87436311 266.61266244 -435.719253 266.98465366 -433.46484375 267.48046875 C-432.67335938 267.64546875 -431.881875 267.81046875 -431.06640625 267.98046875 C-420.85254809 270.55809857 -412.67186238 277.14807488 -404.46484375 283.48046875 C-402.40512463 285.04682583 -400.34278046 286.60920801 -398.27734375 288.16796875 C-397.29378906 288.91433594 -396.31023437 289.66070312 -395.296875 290.4296875 C-392.58406624 292.45888634 -392.58406624 292.45888634 -390.03515625 293.92578125 C-387.34847071 295.55085852 -384.90339706 297.35612687 -382.40332031 299.25 C-365.72430796 311.85693698 -350.76102748 318.61576958 -329.52734375 318.73046875 C-328.57666016 318.75109375 -327.62597656 318.77171875 -326.64648438 318.79296875 C-320.53137908 318.82668401 -316.0206346 318.08454819 -310.46484375 315.48046875 C-309.80484375 314.82046875 -309.14484375 314.16046875 -308.46484375 313.48046875 C-308.75773994 309.67281824 -309.69554842 308.00895579 -312.46484375 305.48046875 C-312.46484375 304.82046875 -312.46484375 304.16046875 -312.46484375 303.48046875 C-313.24859375 303.29484375 -314.03234375 303.10921875 -314.83984375 302.91796875 C-319.10317713 301.22733655 -322.38718192 298.88878414 -326.08203125 296.203125 C-327.86844039 294.91163905 -329.71635407 293.70453235 -331.58984375 292.54296875 C-337.08038207 288.60410431 -342.549598 283.67536598 -345.46484375 277.48046875 C-345.46484375 276.82046875 -345.46484375 276.16046875 -345.46484375 275.48046875 C-346.12484375 275.48046875 -346.78484375 275.48046875 -347.46484375 275.48046875 C-348.30275164 273.6909369 -349.13503771 271.8987718 -349.96484375 270.10546875 C-350.42890625 269.10773438 -350.89296875 268.11 -351.37109375 267.08203125 C-352.46484375 264.48046875 -352.46484375 264.48046875 -352.46484375 262.48046875 C-353.12484375 262.48046875 -353.78484375 262.48046875 -354.46484375 262.48046875 C-355.40200297 260.99713075 -356.26391849 259.46600185 -357.08984375 257.91796875 C-365.27586651 243.91868345 -379.64350581 239.60154055 -394.46484375 235.48046875 C-395.84762222 235.12112085 -397.23173696 234.76687274 -398.6171875 234.41796875 C-399.61842651 234.16382202 -399.61842651 234.16382202 -400.63989258 233.90454102 C-402.47664441 233.44621544 -404.31828384 233.00760606 -406.16015625 232.5703125 C-411.27526282 230.88341565 -414.62862094 228.88316508 -417.40234375 224.23046875 C-419.80956845 216.65269632 -418.68464787 206.17348418 -416.15234375 198.73046875 C-414.50322237 195.55438313 -413.41629575 193.50432155 -410.46484375 191.48046875 C-407.50505958 190.99282523 -405.42379067 190.86057549 -402.84008789 192.53076172 C-401.11639252 194.01087179 -399.50502798 195.55773359 -397.90234375 197.16796875 C-397.35126953 197.69841797 -396.80019531 198.22886719 -396.23242188 198.77539062 C-393.69237192 201.23107356 -391.20845188 203.73941723 -388.72265625 206.25 C-386.49641665 208.53576186 -386.49641665 208.53576186 -383.90234375 210.48046875 C-381.32007322 212.59925482 -379.51594289 214.85249797 -377.46484375 217.48046875 C-374.20422373 220.9173385 -370.74086724 224.01411425 -367.11328125 227.05078125 C-365.46484375 228.48046875 -365.46484375 228.48046875 -364.19140625 229.91015625 C-359.42577701 234.24450683 -353.7181475 236.28026912 -347.65234375 238.04296875 C-346.9552832 238.25421387 -346.25822266 238.46545898 -345.54003906 238.68310547 C-342.48281051 239.60621589 -339.41777792 240.49372258 -336.34375 241.359375 C-335.47621094 241.60558594 -334.60867188 241.85179687 -333.71484375 242.10546875 C-332.9775 242.30398438 -332.24015625 242.5025 -331.48046875 242.70703125 C-329.11495246 243.61472936 -327.45991967 244.93139783 -325.46484375 246.48046875 C-324.28921875 247.03734375 -323.11359375 247.59421875 -321.90234375 248.16796875 C-314.59887679 251.716933 -308.15974283 256.73821084 -302.46484375 262.48046875 C-298.92953889 265.22465644 -296.44931579 266.51501163 -291.90234375 266.35546875 C-290.20078125 265.92234375 -290.20078125 265.92234375 -288.46484375 265.48046875 C-287.37171875 265.21234375 -286.27859375 264.94421875 -285.15234375 264.66796875 C-282.03370592 263.28996599 -281.6751266 262.55272522 -280.46484375 259.48046875 C-279.93761719 259.11050781 -279.41039062 258.74054688 -278.8671875 258.359375 C-276.9177928 255.7475119 -277.4434185 253.69305273 -277.86328125 250.578125 C-277.97929687 249.84464844 -278.0953125 249.11117187 -278.21484375 248.35546875 C-278.31539062 247.61425781 -278.4159375 246.87304688 -278.51953125 246.109375 C-278.77270378 242.48990925 -278.77270378 242.48990925 -280.46484375 239.48046875 C-280.55198206 237.77274517 -280.57184382 236.06148226 -280.5625 234.3515625 C-280.55927734 233.31708984 -280.55605469 232.28261719 -280.55273438 231.21679688 C-280.54435547 230.12818359 -280.53597656 229.03957031 -280.52734375 227.91796875 C-280.52283203 226.82548828 -280.51832031 225.73300781 -280.51367188 224.60742188 C-280.50184201 221.8983838 -280.48535918 219.18945276 -280.46484375 216.48046875 C-279.80484375 216.48046875 -279.14484375 216.48046875 -278.46484375 216.48046875 C-278.40296875 215.61421875 -278.34109375 214.74796875 -278.27734375 213.85546875 C-276.96366496 208.39864916 -273.58767568 205.07504935 -269.21484375 201.79296875 C-263.76043371 198.52452651 -257.3837538 197.974344 -251.1953125 197.05859375 C-247.54089463 196.59871386 -247.54089463 196.59871386 -244.46484375 195.48046875 C-243.24614446 192.97599359 -243.24614446 192.97599359 -242.46484375 190.48046875 C-241.80484375 190.48046875 -241.14484375 190.48046875 -240.46484375 190.48046875 C-238.61226651 183.9964484 -237.71167031 178.52877601 -238.96484375 171.79296875 C-243.89306293 164.19529752 -256.04162587 160.565093 -264.1171875 157.4609375 C-274.84227604 152.98174079 -280.97216106 142.72378529 -285.46484375 132.48046875 C-285.46484375 131.49046875 -285.46484375 130.50046875 -285.46484375 129.48046875 C-286.12484375 129.48046875 -286.78484375 129.48046875 -287.46484375 129.48046875 C-292.1589836 117.80798708 -294.21224874 103.71547463 -289.77734375 91.60546875 C-287.90828532 87.83478991 -285.70642064 85.20634023 -282.46484375 82.48046875 C-281.830625 81.88105469 -281.19640625 81.28164062 -280.54296875 80.6640625 C-276.86468634 77.24160048 -274.57615546 75.15487793 -269.46484375 74.48046875 C-269.46484375 73.82046875 -269.46484375 73.16046875 -269.46484375 72.48046875 C-262.93289474 70.30315241 -254.25031335 70.14117951 -247.96484375 73.16796875 C-246.140625 74.27734375 -246.140625 74.27734375 -244.46484375 75.48046875 C-243.61986328 76.07601562 -243.61986328 76.07601562 -242.7578125 76.68359375 C-239.48933892 79.19658074 -237.26532098 81.77948778 -235.46484375 85.48046875 C-235.46484375 86.14046875 -235.46484375 86.80046875 -235.46484375 87.48046875 C-234.80484375 87.48046875 -234.14484375 87.48046875 -233.46484375 87.48046875 C-232.46043035 89.77029215 -231.46116763 92.06212865 -230.46484375 94.35546875 C-230.17867187 95.00644531 -229.8925 95.65742188 -229.59765625 96.328125 C-227.46484375 101.25390625 -227.46484375 101.25390625 -227.46484375 103.48046875 C-226.80484375 103.48046875 -226.14484375 103.48046875 -225.46484375 103.48046875 C-224.62498291 105.41514817 -223.79316348 107.35332004 -222.96484375 109.29296875 C-222.50078125 110.37191406 -222.03671875 111.45085937 -221.55859375 112.5625 C-220.46484375 115.48046875 -220.46484375 115.48046875 -220.46484375 118.48046875 C-219.80484375 118.48046875 -219.14484375 118.48046875 -218.46484375 118.48046875 C-218.11292969 119.37507813 -217.76101562 120.2696875 -217.3984375 121.19140625 C-214.49524041 128.30158606 -211.48836907 134.4410547 -206.78515625 140.58984375 C-205.46484375 142.48046875 -205.46484375 142.48046875 -205.46484375 144.48046875 C-204.86671875 144.74859375 -204.26859375 145.01671875 -203.65234375 145.29296875 C-201.46484375 146.48046875 -201.46484375 146.48046875 -200.0859375 147.94921875 C-196.22053401 151.60039505 -190.27036331 152.65980164 -185.08984375 152.85546875 C-178.42818812 152.5866651 -171.94397271 151.23651843 -166.46484375 147.35546875 C-161.94090454 140.85230614 -161.01459285 133.82964731 -160.953125 126.0703125 C-160.9351738 125.21740128 -160.9172226 124.36449005 -160.89872742 123.48573303 C-160.84511208 120.79652664 -160.81088739 118.10749259 -160.77734375 115.41796875 C-160.74412745 113.58005438 -160.70963389 111.74216262 -160.67382812 109.90429688 C-160.58941459 105.42981295 -160.52237327 100.95537578 -160.46484375 96.48046875 C-159.80484375 96.48046875 -159.14484375 96.48046875 -158.46484375 96.48046875 C-158.37203125 95.18109375 -158.37203125 95.18109375 -158.27734375 93.85546875 C-157.251585 89.59462472 -155.54596746 87.56159246 -152.46484375 84.48046875 C-148.46223821 82.16317081 -145.02651021 81.90120952 -140.46484375 82.48046875 C-134.00775839 85.04443757 -127.79433866 87.9139753 -123.46484375 93.48046875 C-123.46484375 94.14046875 -123.46484375 94.80046875 -123.46484375 95.48046875 C-122.47484375 95.81046875 -121.48484375 96.14046875 -120.46484375 96.48046875 C-113.51430232 110.33361683 -114.1149035 127.31826326 -118.48828125 141.890625 C-119.42022304 144.45181255 -120.39199933 146.9754291 -121.46484375 149.48046875 C-122.12484375 149.48046875 -122.78484375 149.48046875 -123.46484375 149.48046875 C-123.64660156 150.04894531 -123.82835937 150.61742187 -124.015625 151.203125 C-125.23304368 154.94278547 -126.46478411 158.48034284 -128.15234375 162.04296875 C-129.81336743 166.39326887 -129.980407 168.8403995 -129.46484375 173.48046875 C-127.64276805 177.26477982 -126.43669287 179.00534251 -122.65234375 180.85546875 C-114.82163909 182.39090104 -108.1857058 181.24579123 -101.32421875 177.2265625 C-94.07791839 172.15138648 -89.54657545 165.69841996 -86.46484375 157.48046875 C-85.80484375 157.48046875 -85.14484375 157.48046875 -84.46484375 157.48046875 C-82.43923738 146.79900743 -81.4082534 136.03852439 -80.33984375 125.23046875 C-80.1566075 123.40621406 -79.97301642 121.58199497 -79.7890625 119.7578125 C-79.34356771 115.33243077 -78.90286586 110.90659611 -78.46484375 106.48046875 C-77.80484375 106.48046875 -77.14484375 106.48046875 -76.46484375 106.48046875 C-76.4390625 105.69929688 -76.41328125 104.918125 -76.38671875 104.11328125 C-75.74908667 91.09979013 -73.56510139 78.32575542 -71.46484375 65.48046875 C-70.80484375 65.48046875 -70.14484375 65.48046875 -69.46484375 65.48046875 C-69.40296875 64.28421875 -69.34109375 63.08796875 -69.27734375 61.85546875 C-68.55979 55.06045218 -65.90535651 48.811393 -63.46484375 42.48046875 C-62.80484375 42.48046875 -62.14484375 42.48046875 -61.46484375 42.48046875 C-61.31789063 41.40925781 -61.31789063 41.40925781 -61.16796875 40.31640625 C-60.36000729 37.05762836 -59.0593387 34.90428934 -57.21484375 32.10546875 C-56.58707031 31.15285156 -55.95929688 30.20023438 -55.3125 29.21875 C-54.70277344 28.31511719 -54.09304688 27.41148438 -53.46484375 26.48046875 C-52.96855469 25.73152344 -52.47226562 24.98257813 -51.9609375 24.2109375 C-50.8558768 22.59128137 -49.66861287 21.0281719 -48.46484375 19.48046875 C-47.80484375 19.48046875 -47.14484375 19.48046875 -46.46484375 19.48046875 C-46.12453125 18.64515625 -46.12453125 18.64515625 -45.77734375 17.79296875 C-44.07029845 14.78531751 -41.99699289 12.84747773 -39.46484375 10.48046875 C-38.87445313 9.91972656 -38.2840625 9.35898438 -37.67578125 8.78125 C-35.6624677 6.93237043 -33.59342537 5.19505101 -31.46484375 3.48046875 C-30.85511719 2.96613281 -30.24539063 2.45179687 -29.6171875 1.921875 C-21.60828466 -3.69868703 -8.78534227 -3.85287276 0 0 Z " fill="#FEFEFE" transform="translate(471.46484375,58.51953125)"/>
<path d="M0 0 C22.66515633 1.73591515 44.27830535 14.16168418 63.27050781 25.97314453 C64.81348309 26.93269068 66.36344424 27.88097954 67.9140625 28.828125 C77.9960965 35.08245268 87.25271568 42.35767183 96.3828125 49.9140625 C98.64566601 51.76767654 100.93931507 53.55940025 103.265625 55.33203125 C106.63393962 57.92164948 109.85668676 60.64300919 113.0612793 63.4296875 C128.25940007 76.63803696 145.37147057 88.96186191 166.4140625 88.4453125 C169.2019319 88.2118621 169.2019319 88.2118621 171.515625 85.70703125 C171.99 84.82015625 172.464375 83.93328125 172.953125 83.01953125 C173.93542998 82.00214395 174.92782097 80.99357008 175.953125 80.01953125 C176.26777383 85.26367843 175.79169233 88.55892544 172.953125 93.01953125 C169.69923293 96.38963375 166.51155135 96.57824178 161.953125 97.01953125 C148.80667914 95.94789215 135.99785475 90.57000368 125.953125 82.01953125 C124.69435547 80.99085938 124.69435547 80.99085938 123.41015625 79.94140625 C122.53746094 79.2246875 121.66476562 78.50796875 120.765625 77.76953125 C117.17859198 74.83075721 113.5786357 71.91068811 109.953125 69.01953125 C103.60213099 63.95278247 97.31859489 58.80365141 91.05859375 53.625 C82.68633296 46.18973286 82.68633296 46.18973286 72.953125 41.01953125 C72.953125 40.35953125 72.953125 39.69953125 72.953125 39.01953125 C72.26863281 38.77460937 71.58414063 38.5296875 70.87890625 38.27734375 C67.42308756 36.79166469 64.3226017 34.87917485 61.140625 32.89453125 C55.65387889 29.53511693 50.08922213 26.44619216 44.328125 23.58203125 C43.33462036 23.08775635 43.33462036 23.08775635 42.32104492 22.58349609 C38.91598716 20.91388001 35.49692678 19.37052082 31.953125 18.01953125 C31.953125 17.35953125 31.953125 16.69953125 31.953125 16.01953125 C31.16679687 15.92800781 30.38046875 15.83648437 29.5703125 15.7421875 C23.98531032 14.62639333 18.78182706 12.49270723 13.47265625 10.45898438 C8.07221104 8.47991379 3.71090354 7.22985752 -2.046875 8.01953125 C-4.46466925 9.89579948 -4.46466925 9.89579948 -6.046875 12.51953125 C-6.624375 13.35484375 -7.201875 14.19015625 -7.796875 15.05078125 C-8.209375 15.70046875 -8.621875 16.35015625 -9.046875 17.01953125 C-10.3282637 12.77609185 -9.65359823 10.18240506 -8.046875 6.01953125 C-5.484375 3.14453125 -5.484375 3.14453125 -3.046875 1.01953125 C-2.046875 0.01953125 -2.046875 0.01953125 0 0 Z " fill="#070707" transform="translate(394.046875,479.98046875)"/>
<path d="M0 0 C4.82406985 2.7982666 9.70143529 5.42508452 14.69921875 7.8984375 C15.31450439 8.20426758 15.92979004 8.51009766 16.5637207 8.82519531 C28.0872203 14.46948883 38.66835422 17.52470326 51.51171875 17.6484375 C52.69362793 17.66910278 52.69362793 17.66910278 53.89941406 17.69018555 C62.20575302 17.62460919 68.77899637 15.19365988 74.69921875 9.2734375 C76.56845078 6.12354877 76.56845078 6.12354877 77.69921875 3.2734375 C78.02921875 3.2734375 78.35921875 3.2734375 78.69921875 3.2734375 C79.19680583 9.24448246 78.04050508 13.27242724 74.69921875 18.2734375 C68.57199857 24.40065768 60.79003719 26.22791654 52.38671875 26.4609375 C47.59878156 26.38947575 43.31819817 25.46967019 38.69921875 24.2734375 C37.631875 24.04011719 36.56453125 23.80679688 35.46484375 23.56640625 C21.47138796 20.27824443 8.75478716 14.02451665 -3.30078125 6.2734375 C-17.0753821 -2.18246378 -32.34876003 -8.69817339 -48.671875 -4.953125 C-51.93407771 -3.99252349 -55.10764077 -2.89468604 -58.30078125 -1.7265625 C-59.23664062 -1.42621094 -60.1725 -1.12585938 -61.13671875 -0.81640625 C-70.2169734 2.1886637 -78.52440056 6.48216366 -85.30078125 13.2734375 C-85.96078125 13.2734375 -86.62078125 13.2734375 -87.30078125 13.2734375 C-87.96078125 16.2434375 -88.62078125 19.2134375 -89.30078125 22.2734375 C-89.63078125 22.2734375 -89.96078125 22.2734375 -90.30078125 22.2734375 C-90.70431578 16.70241913 -90.99432174 11.77499457 -87.75390625 6.92578125 C-79.00315427 -3.0246706 -66.5450555 -7.71828156 -54.30078125 -11.7265625 C-53.60339844 -11.97664063 -52.90601563 -12.22671875 -52.1875 -12.484375 C-32.88526918 -18.56179579 -16.18682305 -9.41433802 0 0 Z " fill="#0A0A0A" transform="translate(584.30078125,307.7265625)"/>
<path d="M0 0 C0.33 0 0.66 0 1 0 C1.50512244 1.60256108 2.00391627 3.20711792 2.5 4.8125 C2.7784375 5.70582031 3.056875 6.59914063 3.34375 7.51953125 C4 10 4 10 4 13 C4.66 13 5.32 13 6 13 C7.26171875 14.72265625 7.26171875 14.72265625 8.6875 17.0625 C11.6650063 21.66934389 14.95711293 25.31610079 19 29 C19.64066406 29.58652344 20.28132813 30.17304688 20.94140625 30.77734375 C22.93104199 32.55672444 24.95473053 34.28499778 27 36 C27.58007812 36.50402344 28.16015625 37.00804687 28.7578125 37.52734375 C44.03961968 49.99756303 64.69195682 54.46534256 84 53 C87.10925436 52.42448898 90.08210618 51.65457194 93.125 50.80078125 C111.3379753 45.72787373 132.09999207 46.02533247 150 52 C150.99 52.33 151.98 52.66 153 53 C153 53.66 153 54.32 153 55 C153.845625 55.20625 154.69125 55.4125 155.5625 55.625 C160.15309835 57.46123934 164.72894274 60.45788548 167 65 C167.039992 66.99960012 167.04346799 69.00047242 167 71 C166.01 71 165.02 71 164 71 C163.54367188 70.22785156 163.08734375 69.45570313 162.6171875 68.66015625 C158.14654731 61.30627709 144.89687274 59.00368413 137 57 C130.89604431 55.85410402 124.87573651 55.81651573 118.6875 55.8125 C117.21506836 55.79413086 117.21506836 55.79413086 115.71289062 55.77539062 C107.38622917 55.75885854 99.69522912 56.70204466 92 60 C86.75638215 61.23486018 81.67326861 61.1839094 76.3125 61.1875 C74.89807617 61.20586914 74.89807617 61.20586914 73.45507812 61.22460938 C57.42492475 61.25766124 37.54738919 55.27460664 25.8125 43.875 C25.40386719 43.44574219 24.99523437 43.01648438 24.57421875 42.57421875 C22.5104644 40.5104644 20.31702254 38.6142248 18.125 36.6875 C11.46185397 30.69860089 5.07917215 24.62550708 2 16 C2 15.01 2 14.02 2 13 C1.34 13 0.68 13 0 13 C0 8.71 0 4.42 0 0 Z " fill="#080808" transform="translate(12,349)"/>
<path d="M0 0 C4.52816057 0.88946011 6.00130787 3.05324315 8.5 6.6875 C10.57897102 10.16671915 12.48171808 13.72956699 14.375 17.3125 C15.44400706 19.30538831 16.51430723 21.29758354 17.5859375 23.2890625 C18.09350586 24.23426758 18.60107422 25.17947266 19.12402344 26.15332031 C20.68898251 29.03555508 22.32239178 31.86944875 24 34.6875 C27.37355404 40.39081042 30.56583534 46.18956365 33.75 52 C34.27013672 52.94423828 34.79027344 53.88847656 35.32617188 54.86132812 C42.5 68.00557237 42.5 68.00557237 42.5 72.6875 C43.16 72.6875 43.82 72.6875 44.5 72.6875 C44.88671875 73.66589844 45.2734375 74.64429688 45.671875 75.65234375 C49.00607392 84.10473734 49.00607392 84.10473734 52.625 92.4375 C58.18396605 104.74500508 65.5 121.02382686 65.5 134.6875 C66.16 134.6875 66.82 134.6875 67.5 134.6875 C68.34075218 138.10238492 69.17129993 141.51967213 70 144.9375 C70.35771484 146.38962891 70.35771484 146.38962891 70.72265625 147.87109375 C70.94824219 148.80566406 71.17382812 149.74023438 71.40625 150.703125 C71.61572266 151.56196289 71.82519531 152.42080078 72.04101562 153.30566406 C72.5 155.6875 72.5 155.6875 72.5 159.6875 C73.16 159.6875 73.82 159.6875 74.5 159.6875 C74.62528076 160.26081055 74.75056152 160.83412109 74.87963867 161.42480469 C79.46987303 182.46495123 79.46987303 182.46495123 90.5 200.6875 C91.098125 201.55375 91.69625 202.42 92.3125 203.3125 C97.73573222 209.2005807 104.53501896 212.94803474 112.4375 214.125 C117.76912971 213.36333861 120.98724964 210.65266169 124.171875 206.515625 C127.99887951 200.56671701 130.00814861 194.57095465 131.5 187.6875 C133.97608281 191.40162421 133.49829202 192.41907236 132.6875 196.6875 C132.49542969 197.739375 132.30335938 198.79125 132.10546875 199.875 C131.5 202.6875 131.5 202.6875 130.5 205.6875 C129.84 205.6875 129.18 205.6875 128.5 205.6875 C128.231875 206.574375 127.96375 207.46125 127.6875 208.375 C126.09986034 212.80367905 124.50883481 215.70521348 121.125 219 C115.75599283 221.4993654 110.33348443 221.52408498 104.5 220.6875 C102.25390625 219.25 102.25390625 219.25 100.5 217.6875 C99.695625 217.213125 98.89125 216.73875 98.0625 216.25 C92.64650939 212.9475667 88.68084089 209.18291022 85.5 203.6875 C85.5 203.0275 85.5 202.3675 85.5 201.6875 C84.84 201.6875 84.18 201.6875 83.5 201.6875 C82.65838146 199.60749989 81.82699237 197.52335854 81 195.4375 C80.30390625 193.69726562 80.30390625 193.69726562 79.59375 191.921875 C78.5 188.6875 78.5 188.6875 78.5 184.6875 C77.84 184.6875 77.18 184.6875 76.5 184.6875 C76.29842285 183.87071777 76.0968457 183.05393555 75.88916016 182.21240234 C75.13441788 179.15918588 74.37749975 176.10651917 73.61914062 173.05419922 C73.2924317 171.73735563 72.96657073 170.42030135 72.64160156 169.10302734 C72.17219783 167.20093429 71.69940974 165.29967745 71.2265625 163.3984375 C70.80238037 161.68599854 70.80238037 161.68599854 70.36962891 159.93896484 C69.53123047 156.80426794 68.54129395 153.75968829 67.5 150.6875 C66.73268724 147.97290254 66.05618971 145.23737348 65.375 142.5 C65.19324219 141.78908203 65.01148438 141.07816406 64.82421875 140.34570312 C64.08281051 137.38285741 63.5 134.75418869 63.5 131.6875 C62.84 131.6875 62.18 131.6875 61.5 131.6875 C61.25092896 130.78825806 61.25092896 130.78825806 60.99682617 129.87084961 C60.23205754 127.12081269 59.45983897 124.37291997 58.6875 121.625 C58.42646484 120.68205078 58.16542969 119.73910156 57.89648438 118.76757812 C56.41900627 113.5325631 54.73969377 108.64160524 52.5 103.6875 C51.75317255 101.75673874 51.02236673 99.81965408 50.3125 97.875 C49.96832031 96.94042969 49.62414062 96.00585938 49.26953125 95.04296875 C48.5 92.6875 48.5 92.6875 48.5 90.6875 C47.84 90.6875 47.18 90.6875 46.5 90.6875 C46.14808594 89.76710938 45.79617188 88.84671875 45.43359375 87.8984375 C42.30042523 79.82714628 38.82754703 72.09416477 34.8203125 64.41796875 C33.5 61.6875 33.5 61.6875 33.5 59.6875 C32.84 59.6875 32.18 59.6875 31.5 59.6875 C30.66209211 57.89796815 29.82980604 56.10580305 29 54.3125 C28.5359375 53.31476562 28.071875 52.31703125 27.59375 51.2890625 C26.5 48.6875 26.5 48.6875 26.5 46.6875 C25.84 46.6875 25.18 46.6875 24.5 46.6875 C23.49515796 44.73164675 22.49626195 42.77273763 21.5 40.8125 C20.943125 39.72195313 20.38625 38.63140625 19.8125 37.5078125 C18.5 34.6875 18.5 34.6875 18.5 32.6875 C17.84 32.6875 17.18 32.6875 16.5 32.6875 C15.66180842 31.06500059 14.8295884 29.43941503 14 27.8125 C13.5359375 26.90757812 13.071875 26.00265625 12.59375 25.0703125 C11.5 22.6875 11.5 22.6875 11.5 20.6875 C10.84 20.6875 10.18 20.6875 9.5 20.6875 C9.20867187 19.90503906 8.91734375 19.12257813 8.6171875 18.31640625 C6.4171061 12.09110965 6.4171061 12.09110965 1.4375 8.375 C-1.44319868 8.68145731 -3.14180416 9.02802885 -5.5 10.6875 C-5.83 11.3475 -6.16 12.0075 -6.5 12.6875 C-7.16 12.6875 -7.82 12.6875 -8.5 12.6875 C-8.9206933 8.39642835 -8.95543836 6.33615463 -6.4375 2.75 C-3.5 0.6875 -3.5 0.6875 0 0 Z " fill="#121212" transform="translate(316.5,530.3125)"/>
<path d="M0 0 C2.57324061 1.95056139 5.10215241 3.94386552 7.6171875 5.96875 C8.84115234 6.94134766 8.84115234 6.94134766 10.08984375 7.93359375 C11.93959808 9.43181106 13.75678885 10.97059961 15.55078125 12.53515625 C21.75058116 17.68687555 25.83039507 20.0446674 33.98828125 19.4453125 C36.5719597 19.04782351 39.12373749 18.57862224 41.6796875 18.03125 C41.6796875 17.37125 41.6796875 16.71125 41.6796875 16.03125 C42.5459375 15.433125 43.4121875 14.835 44.3046875 14.21875 C49.37990149 10.25524955 51.29166297 3.81501153 53.6796875 -1.96875 C54.0096875 -1.96875 54.3396875 -1.96875 54.6796875 -1.96875 C54.33927727 6.03089044 53.47658829 14.255288 47.5546875 20.14453125 C40.95650744 25.38617758 36.27603775 27.63999752 27.765625 27.46484375 C22.6570991 26.74706353 19.56099938 24.28010111 15.6796875 21.03125 C14.35130859 19.96390625 14.35130859 19.96390625 12.99609375 18.875 C11.11174799 17.34870607 9.23674594 15.81080687 7.37109375 14.26171875 C3.54364953 11.08977296 -0.35211285 8.02480412 -4.3203125 5.03125 C-5.07570313 4.45632813 -5.83109375 3.88140625 -6.609375 3.2890625 C-18.3752107 -5.33410699 -30.40218879 -11.50778269 -45.3203125 -9.96875 C-53.94085848 -7.6882863 -61.94546149 -4.40651263 -66.77734375 3.37890625 C-67.64618766 4.95885007 -68.48293183 6.55713308 -69.27734375 8.17578125 C-70.3203125 10.03125 -70.3203125 10.03125 -72.3203125 11.03125 C-72.11264183 2.87545622 -69.88006601 -2.26233998 -64.234375 -8.140625 C-43.08132998 -27.92197085 -19.66407946 -14.48345796 0 0 Z " fill="#090909" transform="translate(554.3203125,400.96875)"/>
<path d="M0 0 C4.30572975 1.68952535 7.52523172 3.97470423 11 7 C11.72574219 7.62519531 12.45148438 8.25039063 13.19921875 8.89453125 C20.84356702 16.04381696 26.09476678 24.85600546 31 34 C40.77887438 52.62622585 40.77887438 52.62622585 56.3125 66.375 C62.57469389 67.83132416 67.95218908 68.10319626 73.5625 64.625 C80.75285904 59.22265209 87.17725593 52.65641513 90 44 C90.66 44 91.32 44 92 44 C91.75608912 51.6831926 89.68568072 55.98652685 85 62 C84.39027344 62.825 83.78054688 63.65 83.15234375 64.5 C80.7870968 67.24729228 78.33263922 69.16131678 75.375 71.25 C74.41335938 71.93578125 73.45171875 72.6215625 72.4609375 73.328125 C68.36455523 76.11106407 65.99937339 76.32782776 61 76 C49.52312782 72.24393274 41.38229137 63.55757152 36 53 C36 52.34 36 51.68 36 51 C35.34 51 34.68 51 34 51 C33.64808594 50.27296875 33.29617188 49.5459375 32.93359375 48.796875 C21.49857722 24.79027502 21.49857722 24.79027502 1 9 C-2.53795962 8.14804986 -5.86423566 7.83803205 -9.5 7.8125 C-10.4178125 7.79832031 -11.335625 7.78414062 -12.28125 7.76953125 C-15.19552633 8.01657479 -17.35358797 8.78706115 -20 10 C-20.36197258 3.60515107 -20.36197258 3.60515107 -18.98828125 1.30859375 C-14.05290324 -1.93964129 -5.66925292 -0.92800662 0 0 Z " fill="#0B0B0B" transform="translate(366,521)"/>
<path d="M0 0 C2 3 2 3 3.11328125 5.51171875 C5.84516549 9.11463855 8.93278857 9.67914892 13.1875 10.8125 C14.31188477 11.13637695 14.31188477 11.13637695 15.45898438 11.46679688 C17.30121282 11.99482414 19.15004265 12.49972385 21 13 C21 13.66 21 14.32 21 15 C22.299375 15.12375 23.59875 15.2475 24.9375 15.375 C31.82166334 16.15556655 38.22108223 16.95475756 44 21 C44.65484375 21.39960938 45.3096875 21.79921875 45.984375 22.2109375 C55.43190967 28.10750224 62.02953701 35.08910703 67 45 C75.44017093 60.94462447 85.38827959 71.11232362 100.875 80.625 C105.22280544 83.38047612 108.36084225 85.54073346 111 90 C111.37698217 92.80698889 111.24585036 95.14813588 111 98 C106.125 93.375 106.125 93.375 105 90 C104.195625 89.7525 103.39125 89.505 102.5625 89.25 C98.23200192 87.73052699 95.07539167 85.40666529 91.3828125 82.72265625 C89.59640336 81.4311703 87.74848968 80.2240636 85.875 79.0625 C80.38446168 75.12363556 74.91524575 70.19489723 72 64 C72 63.34 72 62.68 72 62 C71.34 62 70.68 62 70 62 C69.16209211 60.21046815 68.32980604 58.41830305 67.5 56.625 C66.80390625 55.12839844 66.80390625 55.12839844 66.09375 53.6015625 C65 51 65 51 65 49 C64.34 49 63.68 49 63 49 C62.06284078 47.516662 61.20092526 45.9855331 60.375 44.4375 C52.18897724 30.4382147 37.82133794 26.1210718 23 22 C21.61722153 21.6406521 20.23310679 21.28640399 18.84765625 20.9375 C18.18016357 20.76806885 17.5126709 20.5986377 16.82495117 20.42407227 C14.98819934 19.96574669 13.14655991 19.52713731 11.3046875 19.08984375 C7.00475787 17.67178185 3.27970682 15.93325739 0.72265625 12.0703125 C-0.77209038 7.6656745 -1.27433224 4.63393544 0 0 Z " fill="#090909" transform="translate(54,272)"/>
<path d="M0 0 C1.1875 1.5625 1.1875 1.5625 2 4 C0.05982594 10.65088473 -3.47066634 13.45598877 -9 17.375 C-10.54259994 18.51175545 -12.08426652 19.64977858 -13.625 20.7890625 C-14.37523437 21.33723633 -15.12546875 21.88541016 -15.8984375 22.45019531 C-27.23142579 30.80774755 -40.66407111 41.14100507 -47 54 C-47.61875 54.5775 -48.2375 55.155 -48.875 55.75 C-51.7464346 58.79034252 -53.27615517 62.2222124 -55 66 C-55.66 66 -56.32 66 -57 66 C-57.19335938 66.59167969 -57.38671875 67.18335938 -57.5859375 67.79296875 C-58.94414719 71.9146645 -60.32050585 75.9950524 -62 80 C-62.66 80 -63.32 80 -64 80 C-64.11214844 80.65355469 -64.22429687 81.30710937 -64.33984375 81.98046875 C-65.18338422 85.83879292 -66.36284441 89.55223499 -67.5625 93.3125 C-67.91344727 94.42334961 -67.91344727 94.42334961 -68.27148438 95.55664062 C-68.84531972 97.37183405 -69.42234011 99.18602006 -70 101 C-70.66 101 -71.32 101 -72 101 C-72.10957031 101.55945313 -72.21914063 102.11890625 -72.33203125 102.6953125 C-73.8058028 110.14804345 -75.3950724 117.57453495 -77 125 C-77.66 125 -78.32 125 -79 125 C-79.33 126.32 -79.66 127.64 -80 129 C-80.31356011 122.83896749 -79.15327322 117.40559096 -77.6875 111.4375 C-77.47416016 110.51775391 -77.26082031 109.59800781 -77.04101562 108.65039062 C-75.85142539 103.71092788 -74.39503871 99.5094598 -72 95 C-71.41816867 93.13707217 -70.8781896 91.26069033 -70.375 89.375 C-66.3222802 75.83487868 -60.21782472 62.50863149 -52 51 C-51.35160156 50.06929687 -50.70320313 49.13859375 -50.03515625 48.1796875 C-44.39343147 40.23146103 -38.51665246 33.06295445 -31.06640625 26.7578125 C-29.01479361 25.01258436 -27.04357311 23.19957215 -25.0625 21.375 C-19.9224397 16.76791608 -14.39648831 12.67085216 -8.85180664 8.56787109 C-7.78434204 7.76857178 -7.78434204 7.76857178 -6.6953125 6.953125 C-6.05609863 6.48036133 -5.41688477 6.00759766 -4.75830078 5.52050781 C-2.83637959 3.85850764 -1.45220538 2.07745272 0 0 Z " fill="#0D0D0D" transform="translate(487,91)"/>
<path d="M0 0 C6.44536468 2.15304071 12.69416349 4.60375047 18.5703125 8.0390625 C31.03508872 15.16584799 45.9278626 18.98786482 60.27734375 16.625 C62.24570713 16.13178343 62.24570713 16.13178343 63.125 13.8125 C63.41375 12.884375 63.7025 11.95625 64 11 C64.556875 9.3603125 64.556875 9.3603125 65.125 7.6875 C65.41375 6.800625 65.7025 5.91375 66 5 C66.66 5 67.32 5 68 5 C67.22095672 15.55808656 67.22095672 15.55808656 65 20 C64.34 20 63.68 20 63 20 C62.505 21.485 62.505 21.485 62 23 C56.4575856 26.69494293 49.40604059 25.93051335 43 25 C30.04135468 21.96793078 17.64088414 16.86684368 5.94921875 10.56640625 C0.93729184 7.90444242 -3.40540853 7.28224046 -9 8 C-12.55272291 10.11651578 -14.48735523 12.14963149 -16 16 C-16.66 16 -17.32 16 -18 16 C-18.15261721 11.79348813 -17.95761493 8.34847817 -15.46875 4.84375 C-10.60901716 0.13829439 -6.6298739 -1.54921582 0 0 Z " fill="#080808" transform="translate(442,443)"/>
<path d="M0 0 C2.53851338 2.53851338 2.5905885 4.32482089 3.375 7.8125 C6.31380504 17.56890054 12.96942636 25.21126355 21.7578125 30.3359375 C29.6722156 34.54372431 36.09902732 36.1932066 44.9375 36.25 C45.73607422 36.270625 46.53464844 36.29125 47.35742188 36.3125 C52.13651312 36.34417583 55.07757786 35.99379216 59 33 C59.74121094 32.47921875 60.48242188 31.9584375 61.24609375 31.421875 C71.48432564 23.61088882 77.28726511 15.6594295 80 3 C80.66 3 81.32 3 82 3 C81.67 6.96 81.34 10.92 81 15 C80.34 15 79.68 15 79 15 C78.9175 15.825 78.835 16.65 78.75 17.5 C77.28294667 24.34624889 74.31082292 29.3972868 69 34 C68.36191406 34.5671875 67.72382813 35.134375 67.06640625 35.71875 C60.44035383 41.2936105 53.04949602 45.61732385 44.125 44.9375 C42.4107132 44.65950755 40.70228098 44.3439455 39 44 C37.94425781 43.82210937 36.88851562 43.64421875 35.80078125 43.4609375 C28.31852523 42.01836549 22.91183638 39.78791312 17 35 C16.30132812 34.45085938 15.60265625 33.90171875 14.8828125 33.3359375 C7.10594305 26.9090152 1.77116478 20.11229125 0 10 C-0.20614366 6.64672984 -0.19261992 3.35301337 0 0 Z " fill="#070707" transform="translate(112,602)"/>
<path d="M0 0 C5.2989116 2.92977365 8.39495637 6.50336907 11.7265625 11.515625 C12.51944902 12.67193139 13.31241769 13.82818146 14.10546875 14.984375 C15.38872406 16.9127014 16.64108253 18.86342884 17.81640625 20.859375 C19.944392 24.2641522 21.09925565 25.96817329 25.1015625 26.96875 C27.85951574 27.23610261 30.52102225 27.34443042 33.2890625 27.265625 C33.2890625 26.605625 33.2890625 25.945625 33.2890625 25.265625 C33.80855469 25.04648437 34.32804687 24.82734375 34.86328125 24.6015625 C40.64420879 21.97289674 44.37938198 19.08498603 47.2890625 13.265625 C47.9490625 13.265625 48.6090625 13.265625 49.2890625 13.265625 C49.26010653 19.65041558 48.11474034 23.33411658 43.76171875 28.05078125 C42.2890625 29.265625 42.2890625 29.265625 40.2890625 29.265625 C40.2890625 29.925625 40.2890625 30.585625 40.2890625 31.265625 C33.65541409 34.10861717 28.60067854 35.3903944 21.4140625 33.515625 C18.86767216 32.01774833 18.46222833 30.92480088 17.2890625 28.265625 C16.7115625 27.70875 16.1340625 27.151875 15.5390625 26.578125 C13.43466286 24.41526981 11.93753153 22.34245655 10.2890625 19.828125 C9.51175781 18.64863281 9.51175781 18.64863281 8.71875 17.4453125 C8.24695313 16.72601562 7.77515625 16.00671875 7.2890625 15.265625 C3.77343065 9.99217722 -0.69951898 7.47617142 -6.69140625 5.66796875 C-12.71185609 4.46853677 -19.06794085 4.84719787 -24.7109375 7.265625 C-25.97239518 9.62748639 -25.97239518 9.62748639 -26.7109375 12.265625 C-28.8359375 14.578125 -28.8359375 14.578125 -30.7109375 16.265625 C-30.4431054 10.23940269 -29.85346862 5.95322601 -25.7109375 1.265625 C-17.68219161 -4.96074936 -8.9822618 -3.78516718 0 0 Z " fill="#0B0B0B" transform="translate(265.7109375,549.734375)"/>
<path d="M0 0 C2.5505485 3.64364071 2.11533692 6.11595694 1.75 10.5 C1.1621875 9.819375 1.1621875 9.819375 0.5625 9.125 C-2.89056203 6.02915128 -6.00328725 5.2802789 -10.5625 5.5 C-16.0415603 6.30071653 -19.11197917 9.01274484 -23.25 12.5 C-24.79324294 13.66596118 -26.33679002 14.83154215 -27.88549805 15.99023438 C-33.84247325 20.46512039 -39.34352873 25.1990238 -44.71484375 30.37109375 C-49.03152734 33.99604376 -53.58813654 36.28223602 -59.25 36.5 C-64.95459479 35.3884767 -70.23178538 33.88350686 -74.25 29.5 C-76.20687303 25.91239944 -77.37343724 23.66031006 -76.9375 19.5625 C-76.710625 18.881875 -76.48375 18.20125 -76.25 17.5 C-75.6725 18.2425 -75.095 18.985 -74.5 19.75 C-69.62433285 25.71163517 -69.62433285 25.71163517 -62.4296875 27.84375 C-55.22526174 28.18438479 -51.06639577 27.69940277 -45.68359375 22.8203125 C-44.88050781 22.05460937 -44.07742187 21.28890625 -43.25 20.5 C-41.57676868 19.04224874 -39.886168 17.60627223 -38.19433594 16.17016602 C-36.3787997 14.6282271 -34.57331908 13.07518803 -32.76953125 11.51953125 C-29.55583681 8.75651102 -26.32300116 6.02022745 -23.0625 3.3125 C-22.20269531 2.59707031 -21.34289062 1.88164062 -20.45703125 1.14453125 C-14.8644614 -3.02267566 -6.14820083 -2.83763115 0 0 Z " fill="#080808" transform="translate(188.25,453.5)"/>
<path d="M0 0 C2.27038701 2.27038701 2.45057346 3.31848588 3.1875 6.375 C6.95699189 19.53014596 15.14514257 30.31428761 27 37 C31.11307124 38.77426603 34.53606826 39.63770453 39 39 C46.42856696 35.02041056 50.38011033 28.82313015 53.0390625 20.90625 C53.76305984 18.28091386 54.42324389 15.66117294 55 13 C57.47608281 16.71412421 56.99829202 17.73157236 56.1875 22 C55.99542969 23.051875 55.80335938 24.10375 55.60546875 25.1875 C55 28 55 28 54 31 C53.34 31 52.68 31 52 31 C51.731875 31.886875 51.46375 32.77375 51.1875 33.6875 C49.59986034 38.11617905 48.00883481 41.01771348 44.625 44.3125 C39.25599283 46.8118654 33.83348443 46.83658498 28 46 C25.75390625 44.5625 25.75390625 44.5625 24 43 C23.195625 42.525625 22.39125 42.05125 21.5625 41.5625 C16.14650939 38.2600667 12.18084089 34.49541022 9 29 C9 28.34 9 27.68 9 27 C8.34 27 7.68 27 7 27 C6.15838146 24.91999989 5.32699237 22.83585854 4.5 20.75 C4.0359375 19.58984375 3.571875 18.4296875 3.09375 17.234375 C2 14 2 14 2 10 C1.34 10 0.68 10 0 10 C-1.125 2.25 -1.125 2.25 0 0 Z " fill="#090909" transform="translate(393,705)"/>
<path d="M0 0 C2.30542992 2.81417005 3.5491196 5.226208 4.625 8.6875 C9.84606961 23.49381574 15.99615151 35.20166149 30.37890625 42.21850586 C34.77624302 44.30231149 39.18697774 46.33136768 43.75390625 48.015625 C46.34624721 49.1517466 48.13657709 50.56203883 50.25 52.4375 C50.93578125 53.03433594 51.6215625 53.63117188 52.328125 54.24609375 C55.22612836 57.28628887 55.11437653 60.19300695 55.0625 64.1875 C55.05347656 65.08855469 55.04445312 65.98960937 55.03515625 66.91796875 C55.02355469 67.60503906 55.01195312 68.29210937 55 69 C53 66 53 66 52.375 63.625 C48.23091685 55.71356853 35.20800607 52.00189924 27.34765625 48.98046875 C16.62256771 44.50127204 10.49268269 34.24331654 6 24 C6 23.01 6 22.02 6 21 C5.34 21 4.68 21 4 21 C-0.59225513 7.55125285 -0.59225513 7.55125285 0 0 Z " fill="#0C0C0C" transform="translate(180,167)"/>
<path d="M0 0 C0.33 0 0.66 0 1 0 C0.74253015 7.00317999 0.25652231 13.21549533 -4 19 C-8.59222799 23.16504399 -12.9788093 24.06606322 -19 24 C-26.76967164 23.47980831 -32.4047063 21.51611501 -38 16 C-41.26298224 12.17122749 -41.94920044 8.84984411 -43 4 C-42.01 4 -41.02 4 -40 4 C-35 9.34883721 -35 9.34883721 -35 12 C-26.3831674 15.26778302 -17.26852151 16.81673156 -8.375 13.75 C-3.36682961 10.05976918 -2.00321183 5.72346238 0 0 Z " fill="#0B0B0B" transform="translate(242,633)"/>
<path d="M0 0 C0.99 0.33 1.98 0.66 3 1 C3 1.66 3 2.32 3 3 C3.721875 3.20625 4.44375 3.4125 5.1875 3.625 C11.03999464 6.4862196 14.09744916 12.40222337 17 18 C18.07357415 21.28305903 18.10345818 24.30951312 18.0625 27.75 C18.05347656 28.73484375 18.04445312 29.7196875 18.03515625 30.734375 C18.02355469 31.48203125 18.01195312 32.2296875 18 33 C15.69406803 30.69406803 15.53934486 29.55464006 14.8125 26.4375 C12.68941112 19.10222792 8.65367928 13.11672845 1.875 9.375 C-1.43398094 7.9696413 -3.55715607 7.66111625 -7 9 C-7.6703125 9.25265625 -8.340625 9.5053125 -9.03125 9.765625 C-11.62156749 11.38971295 -11.92150587 12.72527054 -12.75 15.625 C-12.99234375 16.44226563 -13.2346875 17.25953125 -13.484375 18.1015625 C-13.65453125 18.72804688 -13.8246875 19.35453125 -14 20 C-14.33 20 -14.66 20 -15 20 C-15.3221077 13.96346301 -15.56806924 9.16754855 -12 4 C-8.15712773 -0.05636517 -5.50016253 -0.50927431 0 0 Z " fill="#141414" transform="translate(202,529)"/>
<path d="M0 0 C0.66 0.33 1.32 0.66 2 1 C1.05152704 10.24761134 -0.31208488 18.38889722 -4 27 C-4.66 27 -5.32 27 -6 27 C-6.17015625 27.52207031 -6.3403125 28.04414063 -6.515625 28.58203125 C-8.55240658 34.7682136 -10.74962705 40.88858108 -13 47 C-13.33 47 -13.66 47 -14 47 C-14.69878476 39.48806383 -12.3539856 31.70797119 -9 25 C-8.34 25 -7.68 25 -7 25 C-6.87753906 24.29488281 -6.75507813 23.58976562 -6.62890625 22.86328125 C-5.96594799 19.84496817 -5.01824425 17.08110558 -3.9375 14.1875 C-3.57527344 13.21167969 -3.21304687 12.23585937 -2.83984375 11.23046875 C-2.56269531 10.49441406 -2.28554688 9.75835937 -2 9 C-1.34 9 -0.68 9 0 9 C0 6.03 0 3.06 0 0 Z " fill="#1E1E1E" transform="translate(354,181)"/>
<path d="M0 0 C1.59172676 2.46256278 2.06050921 3.60487486 1.609375 6.55078125 C1.32578125 7.46214844 1.0421875 8.37351563 0.75 9.3125 C0.31494141 10.75496094 0.31494141 10.75496094 -0.12890625 12.2265625 C-0.41636719 13.14179688 -0.70382812 14.05703125 -1 15 C-1.40016783 16.39459687 -1.7968299 17.79021277 -2.1875 19.1875 C-2.455625 20.115625 -2.72375 21.04375 -3 22 C-3.66 22 -4.32 22 -5 22 C-5.10957031 22.55945313 -5.21914063 23.11890625 -5.33203125 23.6953125 C-6.8058028 31.14804345 -8.3950724 38.57453495 -10 46 C-10.66 46 -11.32 46 -12 46 C-12.33 47.32 -12.66 48.64 -13 50 C-13.31356011 43.83896749 -12.15327322 38.40559096 -10.6875 32.4375 C-10.36749023 31.05788086 -10.36749023 31.05788086 -10.04101562 29.65039062 C-8.85084806 24.70853069 -7.39037031 20.51301915 -5 16 C-4.2455306 13.78602257 -3.53682063 11.55591561 -2.875 9.3125 C-2.54242188 8.19488281 -2.20984375 7.07726562 -1.8671875 5.92578125 C-1.58101563 4.96027344 -1.29484375 3.99476563 -1 3 C-0.67 2.01 -0.34 1.02 0 0 Z " fill="#101010" transform="translate(420,170)"/>
<path d="M0 0 C1.90739027 3.38354448 2.76734743 6.72286344 3.625 10.5 C3.88539063 11.6240625 4.14578125 12.748125 4.4140625 13.90625 C5 17 5 17 5 21 C5.66 21 6.32 21 7 21 C7.53414112 22.89212702 8.05178329 24.78891636 8.5625 26.6875 C8.85253906 27.74324219 9.14257812 28.79898438 9.44140625 29.88671875 C10.00124767 33.00695382 9.84690764 34.97693234 9 38 C7 37 7 37 6.34570312 35.23754883 C6.15943359 34.48497803 5.97316406 33.73240723 5.78125 32.95703125 C5.57113281 32.13009766 5.36101562 31.30316406 5.14453125 30.45117188 C4.93183594 29.58041016 4.71914063 28.70964844 4.5 27.8125 C4.07475157 26.11021765 3.64770644 24.408383 3.21875 22.70703125 C3.01491699 21.89137695 2.81108398 21.07572266 2.60107422 20.23535156 C1.98203928 17.81385502 1.98203928 17.81385502 0.8515625 14.78515625 C-0.12214852 11.6004959 -0.19880982 8.94644206 -0.125 5.625 C-0.10695313 4.56539062 -0.08890625 3.50578125 -0.0703125 2.4140625 C-0.04710937 1.61742187 -0.02390625 0.82078125 0 0 Z " fill="#1D1D1D" transform="translate(384,669)"/>
<path d="M0 0 C0.66 0 1.32 0 2 0 C2.13277344 0.91523438 2.26554688 1.83046875 2.40234375 2.7734375 C2.57894531 3.96195312 2.75554687 5.15046875 2.9375 6.375 C3.11152344 7.55835938 3.28554687 8.74171875 3.46484375 9.9609375 C3.83462786 12.90702381 3.83462786 12.90702381 5 15 C5.06950541 16.54023996 5.08452357 18.08334988 5.0625 19.625 C5.05347656 20.44226563 5.04445312 21.25953125 5.03515625 22.1015625 C5.02355469 22.72804688 5.01195312 23.35453125 5 24 C4.34 23.67 3.68 23.34 3 23 C2.40234375 20.09375 2.40234375 20.09375 1.9375 16.5 C1.73570599 12.42628676 1.73570599 12.42628676 0 9 C-0.07179964 7.48071962 -0.08392007 5.95832518 -0.0625 4.4375 C-0.05347656 3.61121094 -0.04445312 2.78492188 -0.03515625 1.93359375 C-0.02355469 1.29550781 -0.01195312 0.65742188 0 0 Z " fill="#202020" transform="translate(191,289)"/>
<path d="M0 0 C0.92537769 3.3622056 0.98268441 5.9524938 0.625 9.4375 C0.53476562 10.36433594 0.44453125 11.29117188 0.3515625 12.24609375 C0.01714884 14.86566739 -0.44717289 17.41857848 -1 20 C-1.66 20 -2.32 20 -3 20 C-3.33 21.32 -3.66 22.64 -4 24 C-4.23952163 18.36375658 -3.38279585 13.51426608 -2 8.0625 C-1.80921875 7.28326172 -1.6184375 6.50402344 -1.421875 5.70117188 C-0.9550862 3.79900752 -0.47854864 1.89923991 0 0 Z " fill="#2A2A2A" transform="translate(411,196)"/>
<path d="M0 0 C0.66 0 1.32 0 2 0 C1.67 3.96 1.34 7.92 1 12 C-0.65 12.66 -2.3 13.32 -4 14 C-3.69255859 13.11248047 -3.69255859 13.11248047 -3.37890625 12.20703125 C-2.0002429 8.16339184 -0.68249153 4.23144751 0 0 Z " fill="#1C1C1C" transform="translate(192,605)"/>
<path d="M0 0 C2.57146057 2.57146057 2.80117997 4.6050417 3.625 8.125 C3.88539062 9.22070312 4.14578125 10.31640625 4.4140625 11.4453125 C4.70410156 12.70988281 4.70410156 12.70988281 5 14 C4.34 14 3.68 14 3 14 C3 13.01 3 12.02 3 11 C2.01 10.67 1.02 10.34 0 10 C0 6.7 0 3.4 0 0 Z " fill="#404040" transform="translate(112,602)"/>
<path d="M0 0 C1.46985575 2.33447678 2.00714985 3.71400597 1.9375 6.5 C0.70581596 9.78449078 -1.16032533 11.03407138 -4 13 C-3.52140759 11.39566191 -3.04210442 9.79153584 -2.5625 8.1875 C-2.29566406 7.29417969 -2.02882813 6.40085938 -1.75390625 5.48046875 C-1.19612127 3.64526945 -0.60655425 1.81966274 0 0 Z " fill="#333333" transform="translate(420,170)"/>
<path d="M0 0 C0.66 0 1.32 0 2 0 C2.25 2.75 2.25 2.75 2 6 C0 8.375 0 8.375 -2 10 C-2.66 9.67 -3.32 9.34 -4 9 C-2.68 6.03 -1.36 3.06 0 0 Z " fill="#2A2A2A" transform="translate(508,448)"/>
<path d="M0 0 C1.13643966 3.40931897 0.86747764 4.00335456 -0.4375 7.1875 C-0.86869141 8.26064453 -0.86869141 8.26064453 -1.30859375 9.35546875 C-1.53675781 9.89816406 -1.76492188 10.44085938 -2 11 C-2.33 11 -2.66 11 -3 11 C-3.36923077 4.6 -3.36923077 4.6 -1.5 1.5625 C-1.005 1.046875 -0.51 0.53125 0 0 Z " fill="#0A0A0A" transform="translate(343,217)"/>
<path d="M0 0 C0.66 0.99 1.32 1.98 2 3 C1.25 6.625 1.25 6.625 0 10 C-0.99 10.495 -0.99 10.495 -2 11 C-1.40049704 7.31733897 -0.75241109 3.65456815 0 0 Z " fill="#262626" transform="translate(448,718)"/>
<path d="M0 0 C0.5775 0.226875 1.155 0.45375 1.75 0.6875 C0.6671875 1.30625 0.6671875 1.30625 -0.4375 1.9375 C-3.22969862 3.67486803 -5.72012585 5.59131857 -8.25 7.6875 C-6.86345583 3.41232214 -5.12511737 -0.71182186 0 0 Z " fill="#292929" transform="translate(394.25,480.3125)"/>
<path d="M0 0 C0.33 0 0.66 0 1 0 C1.25 5.625 1.25 5.625 -1 9 C-1.66 9 -2.32 9 -3 9 C-2.01 6.03 -1.02 3.06 0 0 Z " fill="#212121" transform="translate(608,399)"/>
</svg>
